<svg xmlns="http://www.w3.org/2000/svg" viewBox="0 0 200 200" fill="none">
  <defs>
    <linearGradient id="grad1" x1="0%" y1="0%" x2="100%" y2="100%">
      <stop offset="0%" stop-color="#4CAF50" />
      <stop offset="100%" stop-color="#8BC34A" />
    </linearGradient>
    <radialGradient id="grad2" cx="50%" cy="50%" r="50%" fx="50%" fy="50%">
      <stop offset="0%" stop-color="#CDDC39" stop-opacity="0.7" />
      <stop offset="100%" stop-color="#4CAF50" stop-opacity="0.1" />
    </radialGradient>
  </defs>
  
  <!-- Background Circle -->
  <circle cx="100" cy="100" r="85" fill="url(#grad2)" />
  
  <!-- Lotus Flower/Figure in Yoga Pose -->
  <path d="M100 40 
           C120 70, 150 90, 140 130 
           Q120 150, 100 160 
           Q80 150, 60 130
           C50 90, 80 70, 100 40" 
        fill="url(#grad1)" stroke="#4CAF50" stroke-width="2" />
  
  <!-- Yoga Figure Silhouette -->
  <path d="M100 70
           C105 65, 110 75, 115 80
           Q125 90, 120 100
           Q110 110, 100 105
           Q90 110, 80 100
           Q75 90, 85 80
           C90 75, 95 65, 100 70" 
        fill="#FFF" />
        
  <!-- Circle for head -->
  <circle cx="100" cy="60" r="8" fill="#FFF" />
</svg>